<svg width="207" height="96" viewBox="0 0 207 96" fill="none" xmlns="http://www.w3.org/2000/svg">
<path d="M45.7615 45H47.8129C54.1625 45 59.4393 49.593 60.5023 55.6379H63.3994C63.4463 55.6379 63.4931 55.6381 63.5399 55.6384C62.4487 47.9293 55.8232 42 47.8129 42H45.7615C37.6617 42 30.9779 48.0624 30 55.8973C30.9721 55.7268 31.9723 55.6379 32.9933 55.6379H33.0721C34.1351 49.593 39.4119 45 45.7615 45Z" fill="#0C4A6E"/>
<path d="M46.5 43.5V31.5" stroke="#0C4A6E" stroke-width="2" stroke-linecap="round" stroke-linejoin="round"/>
<path d="M31.5 13.2295C35.6252 9.53983 40.9655 7.5 46.5 7.5C52.0345 7.5 57.3748 9.53983 61.5 13.2295M36 19.288C38.8039 16.5395 42.5737 15.0001 46.5 15.0001C50.4263 15.0001 54.1961 16.5395 57 19.288M41.25 24.6429C42.652 23.2687 44.5369 22.499 46.5 22.499C48.4631 22.499 50.348 23.2687 51.75 24.6429" stroke="#0C4A6E" stroke-width="2" stroke-linecap="round" stroke-linejoin="round"/>
<path d="M9.17542 82.6403C11.3119 82.6403 12.9737 82.209 14.3818 81.5332C15.7361 80.8831 16.809 80.0246 17.7429 79.2774L17.7879 79.2415C18.7623 78.4619 19.5956 77.8025 20.618 77.3117C21.6085 76.8363 22.825 76.5 24.5262 76.5C26.3136 76.5 27.5462 76.8402 28.5165 77.3097C29.5156 77.7931 30.3037 78.4412 31.2369 79.2188C31.2383 79.22 31.2398 79.2212 31.2413 79.2225L31.2859 79.2597C32.1828 80.0072 33.2239 80.8749 34.58 81.5311C35.9891 82.2129 37.6732 82.6403 39.877 82.6403C42.0135 82.6403 43.6752 82.209 45.0833 81.5332C46.4377 80.8831 47.5106 80.0246 48.4445 79.2774L48.4894 79.2415C49.4639 78.4619 50.2972 77.8025 51.3196 77.3117C52.3101 76.8363 53.5266 76.5 55.2278 76.5C57.0152 76.5 58.2477 76.8402 59.218 77.3097C60.2187 77.7939 61.0077 78.4432 61.9429 79.2225L61.9875 79.2597C62.8844 80.0072 63.9254 80.8749 65.2816 81.5311C66.6906 82.2129 68.3747 82.6403 70.5785 82.6403C72.715 82.6403 74.3768 82.209 75.7849 81.5332C77.1392 80.8831 78.2121 80.0246 79.146 79.2774L79.1909 79.2415C80.1654 78.4619 80.9987 77.8025 82.0211 77.3117C83.0116 76.8363 84.2281 76.5 85.9293 76.5C87.7167 76.5 88.9493 76.8402 89.9196 77.3097C90.9203 77.7939 91.7093 78.4432 92.6444 79.2225C93.2808 79.7528 94.2267 79.6668 94.757 79.0304C95.2874 78.394 95.2014 77.4482 94.5649 76.9178L94.5203 76.8807C93.6235 76.1331 92.5824 75.2654 91.2262 74.6092C89.8172 73.9274 88.1331 73.5 85.9293 73.5C83.7928 73.5 82.131 73.9313 80.7229 74.6071C79.3686 75.2572 78.2957 76.1157 77.3618 76.8629L77.3169 76.8989C76.3424 77.6784 75.5091 78.3378 74.4867 78.8286C73.4962 79.304 72.2797 79.6403 70.5785 79.6403C68.7911 79.6403 67.5585 79.3001 66.5882 78.8306C65.5891 78.3472 64.801 77.6992 63.8679 76.9215C63.8664 76.9203 63.8649 76.9191 63.8634 76.9178L63.8188 76.8807C63.7067 76.7872 63.5923 76.6919 63.4754 76.5953C62.6567 75.9195 61.7113 75.1834 60.5247 74.6092C60.5027 74.5985 60.4806 74.5879 60.4585 74.5774C60.3034 74.5037 60.145 74.4331 59.9829 74.3658C58.6865 73.8272 57.1561 73.5 55.2278 73.5C54.1595 73.5 53.2099 73.6078 52.3514 73.8001C51.4929 73.9924 50.7254 74.2692 50.0214 74.6071C49.9368 74.6478 49.8532 74.6892 49.7707 74.7314C48.5335 75.3641 47.5358 76.1623 46.6603 76.8629C46.6603 76.8629 46.6603 76.8628 46.6603 76.8629L46.6153 76.8989C46.4935 76.9963 46.3739 77.0919 46.2559 77.1855C45.4296 77.8406 44.6798 78.3992 43.7851 78.8286C43.6613 78.888 43.534 78.9453 43.4026 79C42.483 79.3828 41.3655 79.6403 39.877 79.6403C39.7653 79.6403 39.6557 79.639 39.5483 79.6364C37.9365 79.5973 36.7964 79.2708 35.8867 78.8306C35.8242 78.8004 35.7625 78.7695 35.7015 78.7379C34.7868 78.2648 34.0385 77.6484 33.1619 76.9178L33.1172 76.8806C32.2204 76.1331 31.1793 75.2654 29.8232 74.6092C28.4141 73.9274 26.73 73.5 24.5262 73.5C22.3897 73.5 20.7279 73.9313 19.3198 74.6071C17.9655 75.2572 16.8926 76.1157 15.9587 76.8629L15.9138 76.8989C14.9393 77.6784 14.106 78.3378 13.0836 78.8286C12.0931 79.304 10.8766 79.6403 9.17542 79.6403C7.38801 79.6403 6.15545 79.3001 5.18516 78.8306C4.18446 78.3464 3.39544 77.6971 2.46031 76.9178C1.8239 76.3875 0.878051 76.4735 0.347705 77.1099C-0.18264 77.7463 -0.0966542 78.6921 0.539761 79.2225L0.584393 79.2597C1.48127 80.0072 2.52236 80.8749 3.87847 81.5311C5.28755 82.2129 6.97164 82.6403 9.17542 82.6403Z" fill="#0C4A6E"/>
<path d="M60.8877 76.6742L60.8909 76.6757L60.9571 76.7075L60.9603 76.709C62.2587 77.3373 63.2793 78.1367 64.112 78.8242C64.2304 78.9219 64.3459 79.0181 64.4571 79.1109L64.5036 79.1496L64.5052 79.1509L64.508 79.1533C65.4513 79.9393 66.151 80.5082 67.0238 80.9305C67.8479 81.3292 68.9299 81.6403 70.5785 81.6403C72.1345 81.6403 73.2027 81.3357 74.0539 80.9271C74.9581 80.4931 75.7068 79.9063 76.6922 79.118L76.7371 79.0821L76.7621 79.062C77.6853 78.3233 78.8327 77.4052 80.2902 76.7056C80.8889 76.4182 81.5302 76.1712 82.2266 75.9769C82.7279 74.4942 83 72.9048 83 71.25C83 63.1038 76.3962 56.5 68.25 56.5H26.25C18.1038 56.5 11.5 63.1038 11.5 71.25C11.5 74.4799 12.5371 77.4654 14.2972 79.8945C14.6101 79.6599 14.9336 79.4024 15.289 79.118C15.289 79.118 15.2891 79.118 15.2891 79.118L15.334 79.0821L15.359 79.062C16.2823 78.3233 17.4296 77.4052 18.8871 76.7056C20.4344 75.9629 22.2446 75.5 24.5262 75.5C26.8687 75.5 28.7034 75.9564 30.2587 76.709C31.7256 77.4188 32.8453 78.3522 33.733 79.0921L33.7575 79.1124L33.7575 79.1125L33.802 79.1496C33.8021 79.1496 33.8021 79.1496 33.8021 79.1496C34.6889 79.8886 35.3577 80.4342 36.1609 80.8497C36.2141 80.8772 36.2679 80.9042 36.3223 80.9305C37.0964 81.305 38.0953 81.6008 39.5725 81.6367C39.6717 81.6391 39.7732 81.6403 39.877 81.6403C41.2422 81.6403 42.2281 81.4057 43.0183 81.0768C43.1327 81.0292 43.2439 80.9792 43.3524 80.9271C44.1397 80.5492 44.816 80.0509 45.6346 79.4019C45.7508 79.3097 45.8689 79.2153 45.9906 79.118L60.8877 76.6742ZM60.8877 76.6742C60.7179 76.5935 60.5442 76.5161 60.3666 76.4423C58.9371 75.8485 57.2748 75.5 55.2278 75.5C54.0914 75.5 53.0682 75.6148 52.1328 75.8243C51.1969 76.0339 50.3578 76.3364 49.5887 76.7056C49.4963 76.75 49.4052 76.7951 49.3154 76.8411C47.9876 77.5201 46.9238 78.3713 46.0584 79.0637L46.0356 79.082L46.0356 79.082L45.9906 79.118L60.8877 76.6742Z" stroke="#0C4A6E" stroke-width="2" stroke-linejoin="round"/>
<mask id="mask0_362_3270" style="mask-type:alpha" maskUnits="userSpaceOnUse" x="10" y="55" width="74" height="28">
<path d="M60.8877 76.6742L60.8909 76.6757L60.9571 76.7075L60.9603 76.709C62.2587 77.3373 63.2793 78.1367 64.112 78.8242C64.2304 78.9219 64.3459 79.0181 64.4571 79.1109L64.5036 79.1496L64.5052 79.1509L64.508 79.1533C65.4513 79.9393 66.151 80.5082 67.0238 80.9305C67.8479 81.3292 68.9299 81.6403 70.5785 81.6403C72.1345 81.6403 73.2027 81.3357 74.0539 80.9271C74.9581 80.4931 75.7068 79.9063 76.6922 79.118L76.7371 79.0821L76.7621 79.062C77.6853 78.3233 78.8327 77.4052 80.2902 76.7056C80.8889 76.4182 81.5302 76.1712 82.2266 75.9769C82.7279 74.4942 83 72.9048 83 71.25C83 63.1038 76.3962 56.5 68.25 56.5H26.25C18.1038 56.5 11.5 63.1038 11.5 71.25C11.5 74.4799 12.5371 77.4654 14.2972 79.8945C14.6101 79.6599 14.9336 79.4024 15.289 79.118C15.289 79.118 15.2891 79.118 15.2891 79.118L15.334 79.0821L15.359 79.062C16.2823 78.3233 17.4296 77.4052 18.8871 76.7056C20.4344 75.9629 22.2446 75.5 24.5262 75.5C26.8687 75.5 28.7034 75.9564 30.2587 76.709C31.7256 77.4188 32.8453 78.3522 33.733 79.0921L33.7575 79.1124L33.7575 79.1125L33.802 79.1496C33.8021 79.1496 33.8021 79.1496 33.8021 79.1496C34.6889 79.8886 35.3577 80.4342 36.1609 80.8497C36.2141 80.8772 36.2679 80.9042 36.3223 80.9305C37.0964 81.305 38.0953 81.6008 39.5725 81.6367C39.6717 81.6391 39.7732 81.6403 39.877 81.6403C41.2422 81.6403 42.2281 81.4057 43.0183 81.0768C43.1327 81.0292 43.2439 80.9792 43.3524 80.9271C44.1397 80.5492 44.816 80.0509 45.6346 79.4019C45.7508 79.3097 45.8689 79.2153 45.9906 79.118L60.8877 76.6742ZM60.8877 76.6742C60.7179 76.5935 60.5442 76.5161 60.3666 76.4423C58.9371 75.8485 57.2748 75.5 55.2278 75.5C54.0914 75.5 53.0682 75.6148 52.1328 75.8243C51.1969 76.0339 50.3578 76.3364 49.5887 76.7056C49.4963 76.75 49.4052 76.7951 49.3154 76.8411C47.9876 77.5201 46.9238 78.3713 46.0584 79.0637L46.0356 79.082L46.0356 79.082L45.9906 79.118L60.8877 76.6742Z" fill="#D9D9D9" stroke="#0C4A6E" stroke-width="2" stroke-linejoin="round"/>
</mask>
<g mask="url(#mask0_362_3270)">
<path fill-rule="evenodd" clip-rule="evenodd" d="M35.25 55.5C26.5515 55.5 19.5 62.5515 19.5 71.25C19.5 79.9485 26.5515 87 35.25 87H39.75C31.0515 87 24 79.9485 24 71.25C24 62.5515 31.0515 55.5 39.75 55.5H35.25ZM54.75 55.5C63.4485 55.5 70.5 62.5515 70.5 71.25C70.5 79.9485 63.4485 87 54.75 87H59.25C67.9485 87 75 79.9485 75 71.25C75 62.5515 67.9485 55.5 59.25 55.5H54.75Z" fill="#0C4A6E"/>
<rect x="25" y="56.5" width="44.5" height="29.5" rx="14.75" stroke="#0C4A6E" stroke-width="2" stroke-linejoin="round"/>
</g>
<path d="M98.477 56.5V39.7H105.605C106.597 39.7 107.493 39.94 108.293 40.42C109.109 40.884 109.749 41.524 110.213 42.34C110.693 43.156 110.933 44.076 110.933 45.1C110.933 46.14 110.693 47.076 110.213 47.908C109.749 48.74 109.109 49.404 108.293 49.9C107.493 50.38 106.597 50.62 105.605 50.62H102.077V56.5H98.477ZM102.029 47.38H105.197C105.581 47.38 105.925 47.284 106.229 47.092C106.533 46.884 106.773 46.612 106.949 46.276C107.141 45.94 107.237 45.556 107.237 45.124C107.237 44.692 107.141 44.316 106.949 43.996C106.773 43.66 106.533 43.404 106.229 43.228C105.925 43.036 105.581 42.94 105.197 42.94H102.029V47.38ZM118.194 56.74C117.138 56.74 116.186 56.452 115.338 55.876C114.49 55.3 113.818 54.516 113.322 53.524C112.826 52.532 112.578 51.396 112.578 50.116C112.578 48.836 112.826 47.708 113.322 46.732C113.834 45.74 114.522 44.964 115.386 44.404C116.25 43.828 117.234 43.54 118.338 43.54C118.962 43.54 119.53 43.636 120.042 43.828C120.57 44.004 121.026 44.252 121.41 44.572C121.81 44.892 122.146 45.26 122.418 45.676C122.69 46.092 122.882 46.54 122.994 47.02L122.274 46.9V43.804H125.658V56.5H122.226V53.452L122.994 53.38C122.866 53.828 122.658 54.252 122.37 54.652C122.082 55.052 121.722 55.412 121.29 55.732C120.874 56.036 120.402 56.284 119.874 56.476C119.346 56.652 118.786 56.74 118.194 56.74ZM119.13 53.788C119.77 53.788 120.33 53.636 120.81 53.332C121.29 53.028 121.658 52.604 121.914 52.06C122.186 51.5 122.322 50.852 122.322 50.116C122.322 49.396 122.186 48.764 121.914 48.22C121.658 47.676 121.29 47.252 120.81 46.948C120.33 46.628 119.77 46.468 119.13 46.468C118.506 46.468 117.954 46.628 117.474 46.948C117.01 47.252 116.642 47.676 116.37 48.22C116.098 48.764 115.962 49.396 115.962 50.116C115.962 50.852 116.098 51.5 116.37 52.06C116.642 52.604 117.01 53.028 117.474 53.332C117.954 53.636 118.506 53.788 119.13 53.788ZM129.075 56.5V43.804H132.363L132.483 47.884L131.907 47.044C132.099 46.388 132.411 45.796 132.843 45.268C133.275 44.724 133.779 44.3 134.355 43.996C134.947 43.692 135.563 43.54 136.203 43.54C136.475 43.54 136.739 43.564 136.995 43.612C137.251 43.66 137.467 43.716 137.643 43.78L136.731 47.524C136.539 47.428 136.307 47.348 136.035 47.284C135.763 47.204 135.483 47.164 135.195 47.164C134.811 47.164 134.451 47.236 134.115 47.38C133.795 47.508 133.515 47.7 133.275 47.956C133.035 48.196 132.843 48.484 132.699 48.82C132.571 49.156 132.507 49.524 132.507 49.924V56.5H129.075ZM143.811 56.74C142.755 56.74 141.803 56.452 140.955 55.876C140.107 55.3 139.435 54.516 138.939 53.524C138.443 52.532 138.195 51.396 138.195 50.116C138.195 48.836 138.443 47.708 138.939 46.732C139.451 45.74 140.139 44.964 141.003 44.404C141.867 43.828 142.851 43.54 143.955 43.54C144.579 43.54 145.147 43.636 145.659 43.828C146.187 44.004 146.643 44.252 147.027 44.572C147.427 44.892 147.763 45.26 148.035 45.676C148.307 46.092 148.499 46.54 148.611 47.02L147.891 46.9V43.804H151.275V56.5H147.843V53.452L148.611 53.38C148.483 53.828 148.275 54.252 147.987 54.652C147.699 55.052 147.339 55.412 146.907 55.732C146.491 56.036 146.019 56.284 145.491 56.476C144.963 56.652 144.403 56.74 143.811 56.74ZM144.747 53.788C145.387 53.788 145.947 53.636 146.427 53.332C146.907 53.028 147.275 52.604 147.531 52.06C147.803 51.5 147.939 50.852 147.939 50.116C147.939 49.396 147.803 48.764 147.531 48.22C147.275 47.676 146.907 47.252 146.427 46.948C145.947 46.628 145.387 46.468 144.747 46.468C144.123 46.468 143.571 46.628 143.091 46.948C142.627 47.252 142.259 47.676 141.987 48.22C141.715 48.764 141.579 49.396 141.579 50.116C141.579 50.852 141.715 51.5 141.987 52.06C142.259 52.604 142.627 53.028 143.091 53.332C143.571 53.636 144.123 53.788 144.747 53.788ZM162.012 56.74C161.452 56.74 160.908 56.66 160.38 56.5C159.852 56.34 159.372 56.124 158.94 55.852C158.508 55.564 158.148 55.244 157.86 54.892C157.572 54.524 157.388 54.148 157.308 53.764L158.076 53.476L157.908 56.452H154.692V38.74H158.1V46.78L157.452 46.516C157.548 46.132 157.732 45.764 158.004 45.412C158.276 45.044 158.62 44.724 159.036 44.452C159.452 44.164 159.908 43.94 160.404 43.78C160.9 43.62 161.412 43.54 161.94 43.54C163.044 43.54 164.028 43.828 164.892 44.404C165.756 44.964 166.436 45.74 166.932 46.732C167.444 47.724 167.7 48.86 167.7 50.14C167.7 51.42 167.452 52.556 166.956 53.548C166.46 54.54 165.78 55.324 164.916 55.9C164.068 56.46 163.1 56.74 162.012 56.74ZM161.196 53.836C161.836 53.836 162.388 53.684 162.852 53.38C163.332 53.06 163.708 52.628 163.98 52.084C164.252 51.524 164.388 50.876 164.388 50.14C164.388 49.42 164.252 48.78 163.98 48.22C163.724 47.66 163.356 47.228 162.876 46.924C162.396 46.62 161.836 46.468 161.196 46.468C160.556 46.468 159.996 46.62 159.516 46.924C159.036 47.228 158.66 47.66 158.388 48.22C158.116 48.78 157.98 49.42 157.98 50.14C157.98 50.876 158.116 51.524 158.388 52.084C158.66 52.628 159.036 53.06 159.516 53.38C159.996 53.684 160.556 53.836 161.196 53.836ZM176.182 56.74C174.886 56.74 173.726 56.46 172.702 55.9C171.694 55.324 170.894 54.54 170.302 53.548C169.726 52.556 169.438 51.42 169.438 50.14C169.438 48.86 169.726 47.732 170.302 46.756C170.894 45.764 171.694 44.98 172.702 44.404C173.726 43.828 174.886 43.54 176.182 43.54C177.462 43.54 178.606 43.828 179.614 44.404C180.638 44.98 181.438 45.764 182.014 46.756C182.59 47.732 182.878 48.86 182.878 50.14C182.878 51.42 182.59 52.556 182.014 53.548C181.438 54.54 180.638 55.324 179.614 55.9C178.606 56.46 177.462 56.74 176.182 56.74ZM176.182 53.764C176.806 53.764 177.366 53.612 177.862 53.308C178.358 52.988 178.742 52.556 179.014 52.012C179.302 51.452 179.446 50.828 179.446 50.14C179.446 49.436 179.302 48.812 179.014 48.268C178.742 47.708 178.358 47.276 177.862 46.972C177.366 46.652 176.806 46.492 176.182 46.492C175.542 46.492 174.974 46.652 174.478 46.972C173.982 47.292 173.59 47.724 173.302 48.268C173.014 48.812 172.878 49.436 172.894 50.14C172.878 50.828 173.014 51.452 173.302 52.012C173.59 52.556 173.982 52.988 174.478 53.308C174.974 53.612 175.542 53.764 176.182 53.764ZM185.73 56.5V43.804H189.138V56.5H185.73ZM187.41 41.188C186.754 41.188 186.242 41.028 185.874 40.708C185.506 40.388 185.322 39.932 185.322 39.34C185.322 38.796 185.506 38.356 185.874 38.02C186.258 37.668 186.77 37.492 187.41 37.492C188.066 37.492 188.578 37.66 188.946 37.996C189.314 38.316 189.498 38.764 189.498 39.34C189.498 39.9 189.306 40.348 188.922 40.684C188.554 41.02 188.05 41.188 187.41 41.188ZM197.53 56.74C196.474 56.74 195.522 56.452 194.674 55.876C193.826 55.3 193.154 54.516 192.658 53.524C192.162 52.532 191.914 51.396 191.914 50.116C191.914 48.836 192.162 47.708 192.658 46.732C193.17 45.74 193.858 44.964 194.722 44.404C195.586 43.828 196.57 43.54 197.674 43.54C198.298 43.54 198.866 43.636 199.378 43.828C199.906 44.004 200.362 44.252 200.746 44.572C201.146 44.892 201.482 45.26 201.754 45.676C202.026 46.092 202.218 46.54 202.33 47.02L201.61 46.9V43.804H204.994V56.5H201.562V53.452L202.33 53.38C202.202 53.828 201.994 54.252 201.706 54.652C201.418 55.052 201.058 55.412 200.626 55.732C200.21 56.036 199.738 56.284 199.21 56.476C198.682 56.652 198.122 56.74 197.53 56.74ZM198.466 53.788C199.106 53.788 199.666 53.636 200.146 53.332C200.626 53.028 200.994 52.604 201.25 52.06C201.522 51.5 201.658 50.852 201.658 50.116C201.658 49.396 201.522 48.764 201.25 48.22C200.994 47.676 200.626 47.252 200.146 46.948C199.666 46.628 199.106 46.468 198.466 46.468C197.842 46.468 197.29 46.628 196.81 46.948C196.346 47.252 195.978 47.676 195.706 48.22C195.434 48.764 195.298 49.396 195.298 50.116C195.298 50.852 195.434 51.5 195.706 52.06C195.978 52.604 196.346 53.028 196.81 53.332C197.29 53.636 197.842 53.788 198.466 53.788Z" fill="#0C4A6E"/>
</svg>
