<svg width="32" height="32" viewBox="0 0 32 32" fill="none" xmlns="http://www.w3.org/2000/svg">
<g clip-path="url(#clip0_350_3106)">
<path fill-rule="evenodd" clip-rule="evenodd" d="M10.61 10.07C11.0504 10.0603 11.2537 10.2737 11.22 10.71C11.2009 10.7676 11.1742 10.8209 11.14 10.87C9.511 12.5301 8.811 14.5234 9.04002 16.85C9.25612 18.5155 9.95612 19.9355 11.14 21.11C11.2599 21.3092 11.2599 21.5092 11.14 21.71C10.8975 21.956 10.6409 21.9728 10.37 21.76C8.6295 19.9524 7.84616 17.7891 8.02002 15.27C8.20796 13.2945 8.99796 11.6078 10.39 10.21C10.4592 10.1536 10.5326 10.107 10.61 10.07Z" fill="#7DD3FC"/>
<path fill-rule="evenodd" clip-rule="evenodd" d="M21.13 10.0701C21.2744 10.0519 21.4078 10.0819 21.53 10.1601C23.2716 11.9017 24.0882 14.0117 23.98 16.4901C23.8258 18.5411 23.0358 20.2977 21.61 21.7601C21.3378 21.9735 21.081 21.9569 20.84 21.7101C20.721 21.5095 20.721 21.3095 20.84 21.1101C22.6622 19.2284 23.3222 16.9951 22.82 14.4101C22.4964 13.0358 21.8364 11.8558 20.84 10.8701C20.6536 10.499 20.7504 10.2324 21.13 10.0701Z" fill="#7DD3FC"/>
<path fill-rule="evenodd" clip-rule="evenodd" d="M16.71 10.65C17.069 10.6293 17.269 10.7959 17.31 11.15C17.1749 12.2642 17.0349 13.3775 16.89 14.49C17.5634 14.4867 18.2367 14.49 18.91 14.5C19.2108 14.581 19.3474 14.7777 19.32 15.09C19.2633 15.2267 19.19 15.3533 19.1 15.47C17.7056 17.3511 16.3189 19.2378 14.94 21.13C14.7383 21.3446 14.5083 21.3812 14.25 21.24C14.1105 21.131 14.0372 20.9876 14.03 20.81C14.3504 19.4885 14.6771 18.1685 15.01 16.85C14.3634 16.8334 13.7168 16.8234 13.07 16.82C12.7364 16.7162 12.6064 16.4928 12.68 16.15C13.9356 14.3545 15.1989 12.5645 16.47 10.78C16.544 10.722 16.624 10.6787 16.71 10.65Z" fill="#0EA5E9"/>
<path fill-rule="evenodd" clip-rule="evenodd" d="M12.01 11.4901C12.2958 11.4439 12.4991 11.5506 12.62 11.8101C12.6808 12.0012 12.6474 12.1745 12.52 12.3301C11.2688 13.6172 10.7888 15.1505 11.08 16.9301C11.2771 17.9911 11.7571 18.8978 12.52 19.6501C12.7271 19.9544 12.6838 20.2179 12.39 20.4401C12.2023 20.5167 12.0223 20.5033 11.85 20.4001C10.6226 19.1725 10.0026 17.6858 9.98999 15.9401C10.0245 14.2316 10.6445 12.7783 11.85 11.5801C11.902 11.5442 11.9553 11.5142 12.01 11.4901Z" fill="#7DD3FC"/>
<path fill-rule="evenodd" clip-rule="evenodd" d="M19.69 11.49C19.8483 11.4683 19.9949 11.4983 20.13 11.58C21.737 13.2287 22.3004 15.1853 21.82 17.45C21.5322 18.5961 20.9688 19.5795 20.13 20.4C19.7614 20.5882 19.498 20.4916 19.34 20.11C19.3019 19.9244 19.3485 19.7644 19.48 19.63C20.4826 18.6102 20.9858 17.3802 20.99 15.94C20.9592 14.5288 20.4492 13.3255 19.46 12.33C19.2337 11.9656 19.3104 11.6856 19.69 11.49Z" fill="#7DD3FC"/>
</g>
<defs>
<clipPath id="clip0_350_3106">
<rect width="32" height="32" fill="white"/>
</clipPath>
</defs>
</svg>
