<svg width="32" height="32" viewBox="0 0 32 32" fill="none" xmlns="http://www.w3.org/2000/svg">
<g clip-path="url(#clip0_350_3120)">
<path fill-rule="evenodd" clip-rule="evenodd" d="M11.103 9.0057C12.0657 8.99049 13.0278 9.0057 13.9893 9.05151C15.5318 9.42682 16.5473 10.2668 17.036 11.5713C17.1073 13.7398 17.1073 15.9083 17.036 18.0768C16.6367 19.3658 15.6924 20.2058 14.2031 20.5966C12.0915 21.1179 10.292 20.7056 8.80462 19.3596C8.50487 18.9983 8.29107 18.6012 8.16322 18.1684C7.99047 16.0037 7.95487 13.8353 8.05632 11.6629C8.52219 10.3016 9.53774 9.41583 11.103 9.0057Z" fill="#7DD3FC"/>
<path fill-rule="evenodd" clip-rule="evenodd" d="M11.3533 11.9378C12.0995 11.9226 12.8441 11.9379 13.5873 11.9836C13.6571 12.0294 13.7269 12.0753 13.7967 12.1211C13.8898 13.9231 13.8898 15.7251 13.7967 17.5271C13.6804 17.6034 13.5639 17.6798 13.4476 17.7562C12.7495 17.8173 12.0514 17.8173 11.3533 17.7562C11.1857 17.6734 11.0692 17.5666 11.0043 17.4355C10.9112 15.6945 10.9112 13.9536 11.0043 12.2127C11.1017 12.1036 11.2181 12.0119 11.3533 11.9378Z" fill="#E0F2FE"/>
<path fill-rule="evenodd" clip-rule="evenodd" d="M19.9218 12.8541C20.8386 12.8389 21.7549 12.8541 22.6706 12.8999C23.6865 13.0913 24.3127 13.6869 24.549 14.6866C24.6101 15.6029 24.6101 16.5192 24.549 17.4355C24.1043 18.8396 23.1422 19.4504 21.6627 19.268C21.6627 19.4207 21.6627 19.5734 21.6627 19.7261C22.3718 19.6935 23.0743 19.7393 23.7702 19.8636C24.6217 20.3932 24.8202 21.1109 24.3657 22.0168C24.1378 22.3673 23.8171 22.5659 23.4037 22.6124C22.182 22.6735 20.9602 22.6735 19.7386 22.6124C19.2161 22.3957 18.8954 22.014 18.7765 21.4671C18.6935 20.4538 18.724 19.4459 18.8681 18.4434C19.347 17.1228 20.2785 16.4204 21.6627 16.3359C21.6627 16.1527 21.6627 15.9694 21.6627 15.7862C20.9901 15.8014 20.3182 15.7862 19.6469 15.7404C18.616 15.0729 18.4633 14.2483 19.1888 13.2664C19.4269 13.1019 19.6713 12.9645 19.9218 12.8541Z" fill="#7DD3FC"/>
</g>
<defs>
<clipPath id="clip0_350_3120">
<rect width="32" height="32" fill="white"/>
</clipPath>
</defs>
</svg>
