<svg width="32" height="32" viewBox="0 0 32 32" fill="none" xmlns="http://www.w3.org/2000/svg">
<g clip-path="url(#clip0_350_3094)">
<path fill-rule="evenodd" clip-rule="evenodd" d="M15.23 8.87C15.2567 8.87 15.2834 8.87 15.31 8.87C15.3034 9.33346 15.3101 9.79346 15.33 10.25C15.4039 10.5972 15.6172 10.7905 15.97 10.83C16.3534 10.8066 16.58 10.6066 16.65 10.23C16.6567 9.77296 16.6767 9.31964 16.71 8.87C18.392 9.01808 19.8787 9.62808 21.17 10.7C20.7854 11.0712 20.4154 11.4545 20.06 11.85C19.894 12.3213 20.044 12.6446 20.51 12.82C20.7344 12.8563 20.9344 12.803 21.11 12.66C21.4466 12.3233 21.7834 11.9867 22.12 11.65C23.3766 13.1196 23.9966 14.8262 23.98 16.77C23.9124 16.9842 23.7692 17.1142 23.55 17.16C22.4166 17.17 21.2834 17.1733 20.15 17.17C20.2232 15.6514 19.6666 14.4247 18.48 13.49C18.0283 14.3469 17.5816 15.2069 17.14 16.07C17.1267 16.0967 17.1267 16.1233 17.14 16.15C17.3004 16.437 17.3538 16.7437 17.3 17.07C17.17 17.6533 16.8134 18.01 16.23 18.14C15.5736 18.2202 15.0903 17.9702 14.78 17.39C14.5298 16.7475 14.6664 16.2041 15.19 15.76C15.4149 15.5992 15.6649 15.5092 15.94 15.49C16.3849 14.6202 16.8349 13.7535 17.29 12.89C15.5845 12.3841 14.1145 12.7708 12.88 14.05C12.1057 14.943 11.7557 15.983 11.83 17.17C10.6833 17.1733 9.53666 17.17 8.39002 17.16C8.08044 17.0445 7.9471 16.8211 7.99002 16.49C8.05004 14.6524 8.67338 13.039 9.86002 11.65C10.2034 11.9933 10.5467 12.3367 10.89 12.68C11.2421 12.9048 11.5654 12.8681 11.86 12.57C12.0216 12.3134 12.0282 12.0534 11.88 11.79C11.5306 11.4206 11.1739 11.0572 10.81 10.7C12.0915 9.63964 13.5648 9.02964 15.23 8.87Z" fill="#0EA5E9"/>
<path fill-rule="evenodd" clip-rule="evenodd" d="M18.33 22.39C18.33 22.09 18.33 21.79 18.33 21.49C18.1034 21.49 17.8767 21.49 17.65 21.49C17.65 21.79 17.65 22.09 17.65 22.39C17.5763 22.7204 17.3696 22.8638 17.03 22.82C16.8273 22.744 16.7039 22.6006 16.66 22.39C16.6467 21.3366 16.6467 20.2834 16.66 19.23C16.8157 18.8505 17.079 18.7471 17.45 18.92C17.5219 18.9784 17.5785 19.0484 17.62 19.13C17.6494 19.582 17.6594 20.0354 17.65 20.49C17.8767 20.49 18.1034 20.49 18.33 20.49C18.3206 20.0354 18.3306 19.582 18.36 19.13C18.5433 18.8245 18.7933 18.7545 19.11 18.92C19.2174 18.9981 19.2874 19.1014 19.32 19.23C19.3334 20.2834 19.3334 21.3366 19.32 22.39C19.2438 22.7128 19.0405 22.856 18.71 22.82C18.4943 22.7542 18.3676 22.611 18.33 22.39Z" fill="#7DD3FC"/>
<path fill-rule="evenodd" clip-rule="evenodd" d="M13.71 20.17C14.0967 20.1666 14.4834 20.17 14.87 20.18C15.6245 20.368 15.9945 20.8514 15.98 21.63C15.8831 22.2468 15.5331 22.6368 14.93 22.8C14.7311 22.8272 14.5311 22.8372 14.33 22.83C14.3333 23.13 14.33 23.43 14.32 23.73C14.2144 24.0978 13.9778 24.2278 13.61 24.12C13.4647 24.0464 13.3747 23.9296 13.34 23.77C13.3266 22.6966 13.3266 21.6234 13.34 20.55C13.4003 20.3596 13.5236 20.233 13.71 20.17Z" fill="#7DD3FC"/>
<path fill-rule="evenodd" clip-rule="evenodd" d="M14.33 21.17C14.4917 21.162 14.6517 21.172 14.81 21.2C15.0254 21.3638 15.0454 21.5504 14.87 21.76C14.83 21.78 14.79 21.8 14.75 21.82C14.6101 21.83 14.4701 21.8334 14.33 21.83C14.33 21.61 14.33 21.39 14.33 21.17Z" fill="#E0F2FE"/>
</g>
<defs>
<clipPath id="clip0_350_3094">
<rect width="32" height="32" fill="white"/>
</clipPath>
</defs>
</svg>
