<svg width="32" height="32" viewBox="0 0 32 32" fill="none" xmlns="http://www.w3.org/2000/svg">
<path d="M10 9.33337V13.3334H14" stroke="#0EA5E9" stroke-width="1.33333" stroke-linecap="round" stroke-linejoin="round"/>
<path d="M22 16C21.9989 14.8422 21.6629 13.7095 21.0325 12.7384C20.4021 11.7673 19.5041 10.9993 18.447 10.5272C17.3899 10.055 16.2187 9.89873 15.0748 10.0773C13.9308 10.2558 12.863 10.7615 12 11.5334L10 13.3334" stroke="#0EA5E9" stroke-width="1.33333" stroke-linecap="round" stroke-linejoin="round"/>
<path d="M22 22.6666V18.6666H18" stroke="#0EA5E9" stroke-width="1.33333" stroke-linecap="round" stroke-linejoin="round"/>
<path d="M10 16C10.0011 17.1578 10.3371 18.2905 10.9675 19.2616C11.5979 20.2327 12.4959 21.0007 13.553 21.4729C14.6101 21.9451 15.7813 22.1013 16.9252 21.9228C18.0692 21.7442 19.137 21.2385 20 20.4667L22 18.6667" stroke="#0EA5E9" stroke-width="1.33333" stroke-linecap="round" stroke-linejoin="round"/>
</svg>
