<svg width="32" height="32" viewBox="0 0 32 32" fill="none" xmlns="http://www.w3.org/2000/svg">
<g clip-path="url(#clip0_350_3130)">
<path fill-rule="evenodd" clip-rule="evenodd" d="M21.3281 7.98435C22.4781 7.90013 23.3063 8.36888 23.8125 9.3906C24.1446 10.3173 23.9884 11.1506 23.3437 11.8906C21.2812 13.9531 19.2187 16.0156 17.1562 18.0781C17.0928 18.1735 17.0564 18.2777 17.0469 18.3906C17.3935 20.5349 16.6644 22.1964 14.8594 23.375C13.3276 24.1874 11.7964 24.1874 10.2656 23.375C8.63724 22.3319 7.88202 20.8371 7.99999 18.8906C8.28483 17.0959 9.25877 15.8407 10.9219 15.125C11.7613 14.8122 12.6207 14.7445 13.5 14.9219C13.6371 14.9109 13.7674 14.8744 13.8906 14.8125C15.9531 12.75 18.0156 10.6875 20.0781 8.62498C20.4411 8.30285 20.8578 8.08932 21.3281 7.98435Z" fill="#0EA5E9"/>
<path fill-rule="evenodd" clip-rule="evenodd" d="M22.4843 10.8281C22.3258 10.7167 22.18 10.5865 22.0468 10.4375C21.5772 10.2062 21.2283 10.326 21 10.7969C20.9622 10.9964 20.9934 11.1839 21.0937 11.3594C21.2407 11.5011 21.3813 11.6469 21.5156 11.7969C21.1718 12.1615 20.8177 12.5156 20.4531 12.8594C20.2889 12.6483 20.091 12.4764 19.8593 12.3438C19.4526 12.2684 19.1662 12.4195 19 12.7969C18.9622 12.9964 18.9934 13.1839 19.0937 13.3594C19.2407 13.5011 19.3813 13.6469 19.5156 13.7969C19.1718 14.1615 18.8177 14.5156 18.4531 14.8594C18.2889 14.6483 18.091 14.4764 17.8593 14.3438C17.4526 14.2684 17.1662 14.4195 17 14.7969C16.9622 14.9964 16.9934 15.1839 17.0937 15.3594C17.2407 15.5011 17.3813 15.6469 17.5156 15.7969C17.0792 16.2489 16.6365 16.6968 16.1875 17.1406C15.7514 17.6871 15.616 18.3017 15.7812 18.9844C15.8884 20.5467 15.2478 21.6769 13.8593 22.375C12.4113 22.9194 11.1561 22.6329 10.0937 21.5156C9.30468 20.5001 9.12759 19.3855 9.56246 18.1719C10.143 16.923 11.1222 16.2564 12.5 16.1719C12.8299 16.1838 13.1581 16.2151 13.4843 16.2656C13.9132 16.2522 14.3091 16.1324 14.6718 15.9063C16.8385 13.7604 19.0052 11.6146 21.1718 9.46876C21.6428 9.23254 22.0646 9.30022 22.4375 9.67188C22.6918 10.0466 22.7074 10.432 22.4843 10.8281Z" fill="#E0F2FE"/>
<path fill-rule="evenodd" clip-rule="evenodd" d="M22.4844 10.8282C22.1719 11.1615 21.849 11.4844 21.5156 11.7969C21.3813 11.647 21.2407 11.5011 21.0938 11.3594C20.9935 11.184 20.9622 10.9965 21 10.7969C21.2283 10.326 21.5773 10.2062 22.0469 10.4375C22.18 10.5865 22.3258 10.7167 22.4844 10.8282Z" fill="#7DD3FC"/>
<path fill-rule="evenodd" clip-rule="evenodd" d="M20.4531 12.8594C20.151 13.1823 19.8385 13.4948 19.5156 13.7969C19.3813 13.6469 19.2407 13.5011 19.0938 13.3594C18.9935 13.1839 18.9622 12.9964 19 12.7969C19.1663 12.4195 19.4527 12.2684 19.8594 12.3437C20.091 12.4764 20.2889 12.6483 20.4531 12.8594Z" fill="#7DD3FC"/>
<path fill-rule="evenodd" clip-rule="evenodd" d="M18.4531 14.8594C18.151 15.1823 17.8385 15.4948 17.5156 15.7969C17.3813 15.6469 17.2407 15.5011 17.0938 15.3594C16.9935 15.1839 16.9622 14.9964 17 14.7969C17.1663 14.4195 17.4527 14.2684 17.8594 14.3437C18.091 14.4764 18.2889 14.6483 18.4531 14.8594Z" fill="#7DD3FC"/>
<path fill-rule="evenodd" clip-rule="evenodd" d="M14.5157 16.6407C14.9802 16.6313 15.2511 16.8553 15.3282 17.3125C15.319 17.4819 15.2617 17.633 15.1563 17.7657C14.9219 18 14.6875 18.2344 14.4532 18.4688C14.8535 19.4654 14.6348 20.2988 13.7969 20.9688C12.991 21.4664 12.1993 21.4456 11.4219 20.9063C10.5584 20.1057 10.4178 19.1943 11 18.1719C11.4959 17.5064 12.1574 17.2304 12.9844 17.3438C13.1713 17.3994 13.3588 17.4411 13.5469 17.4688C13.7657 17.25 13.9844 17.0313 14.2032 16.8125C14.3052 16.746 14.4094 16.6887 14.5157 16.6407Z" fill="#0EA5E9"/>
</g>
<defs>
<clipPath id="clip0_350_3130">
<rect width="32" height="32" fill="white"/>
</clipPath>
</defs>
</svg>
